<svg version="1.2" xmlns="http://www.w3.org/2000/svg" viewBox="0 0 3747 4221" width="3747" height="4221"><style>.a{fill:#e3cb9a}</style><path fill-rule="evenodd" class="a" d="m598.4 2997.7c-26.2-39.2-106.7-114-143.5-153.9-152.2-165.3-258.1-348.6-336.4-557.4-122.3-326.3-155.2-688.4-71.8-1030.2 70.5-289 208.8-561 413.2-778.7 98.5-104.8 202.7-195.8 320.9-275.1 60.3-40.4 123.2-76.7 187.4-110.6 22.6-11.9 206-90.5 207-91.8h1229.1c315.8 144.9 539 272.9 752.1 554.6 206.8 273.3 329.9 590.5 373.4 934.4 46.1 364-33 757-201.1 1081.8-63.1 121.9-176.1 289.6-269.6 384.9-53.4 54.4-106.6 111.6-166.8 160.4-26 21-120.6 88.2-129.5 99.5l-51.4 41.4 1035 959.4-3.9 4.2c-217.1-179.4-440.7-349.1-657.7-530.8-106.5-89.2-212-185.8-317.8-276.8-26.7-23-53.3-46.1-80-69-45.9-39.5-37.9-49.9-85-22.1-24.9 14.8-174 107.1-186.9 109.6l-444.7-377.8 28.1-169.4 118.1-25.3 2.4 14.7-30.5-20.2 20.9-47.6 18.1-52.5-33-69 85.3-102.1c26.3 22.2 161.7 82.9 199.9 99.1 34.8 14.8 69.2 32.6 104.2 46.2 67.2 26 54.5 22.4 104.5-12.3 101.3-55.3-16.6-90.8 8.5-147.4 7-15.7 110.5-60 95.1-136.3l-71.9-42.5 2.4-4c3.9-12.9 59.5-30.1 68.3-46.5 19.1-35.9 36.1-27.2 59.3-55 57.7-68.8-80.9-78 33.2-138.5 193.2-102.4 125.8-80.1 53.5-254.8 44.6-46.7 91.5-89.6 135.8-138.5 48.5-53.4 28.5-28.5 24.5-94.7-2.8-44.5-2-88.3-3.7-132.6-5.2-133-58.2-305.9-124.8-421.4-138.7-240.9-337.8-407.1-604.9-488.4-21.3-19.5-219-51.8-259.1-55-101.1-7.8-187.8-0.8-287 20.9-83.2 18.2-159.7 45.2-237.2 78.2-31.4 13.4-186.3 98.8-195.3 120.3l-281 332.8 16.5 12.8c7.3 4.9 36.4 7.2 64.4 22.3 69.2 37.4 296.8 250.3 334.2 260.7l-15.6 20.6-341-289.9c-69.8 28.3-42.8-13-67.2 79.4-7.7 29.2-33.9 92.1-7.9 110.4 54.6 38.3 112.3 90.1 166.4 131.6 150.4 115.3 307.8 239.1 407.3 323.7l-6.7 8.1c-231.8-187-386.6-305.8-667.4-522.1l-6 7.8 83.5 60.5c9.6 34.7-68.1 165 18.4 242.2 27.1 24.2 56.7 44.6 86.1 65.6 17.7 12.6 103.3 47 104.1 47.9 12.5 93.4-92.1 486.4-117.4 601.1-39.5 179.2-108.6 380-169 553.3-26 74.9-9.1 63.3-81.2 17.8-15.1-9.5-124.6-63-127.7-30.7-2.3 22.6 166.2 146.8 193.7 166.8 139.1 100.5 271.5 214 409.2 312l-12.8 0.8-554.4-424-6.8-12.3-108.4 119.4z"/></svg>